<svg xmlns="http://www.w3.org/2000/svg" viewBox="0 0 276.21 193.56"><defs><style>.cls-1,.cls-4{font-size:40px;font-family:Quicksand-Medium, Quicksand;font-weight:500;}.cls-1,.cls-3,.cls-4{fill:#004833;}.cls-2{letter-spacing:-0.04em;}.cls-3{font-size:12px;font-family:Quicksand-Light, Quicksand;font-weight:300;}.cls-4{letter-spacing:0em;}.cls-5{letter-spacing:0em;}.cls-6{fill:#db9428;stroke:#010101;stroke-miterlimit:10;stroke-width:0.25px;}.cls-7{fill:#fff;}</style></defs><g id="Layer_2" data-name="Layer 2"><text class="cls-1" transform="translate(0 34)">Ca<tspan class="cls-2" x="50.36" y="0">f</tspan><tspan x="64.4" y="0">e</tspan></text><text class="cls-3" transform="translate(75.89 46.08)">in </text><text class="cls-4" transform="translate(189.97 136.72)">P<tspan class="cls-5" x="23.76" y="0">ark</tspan></text><text class="cls-3" transform="translate(192.14 104.31)">the</text></g><g id="Layer_1" data-name="Layer 1"><path class="cls-6" d="M159.5,177.35C157.79,197.76,144,203.81,144,203.81c20.76,1.86,38.14-3.51,51.24-30.67,9.59-19.88,10.91-66.71-11.88-87.41-7.76-7-28.09-18.39-32.42,10.72C147.7,118.14,161.12,157.86,159.5,177.35Z" transform="translate(-14.49 -68.37)"/><path class="cls-6" d="M145.29,100.08c1.7-20.41,15.5-26.46,15.5-26.46-20.76-1.86-38.13,3.52-51.23,30.68C100,124.18,98.64,171,121.44,191.71c7.75,7,28.08,18.39,32.41-10.72C157.08,159.3,143.66,119.57,145.29,100.08Z" transform="translate(-14.49 -68.37)"/><path class="cls-7" d="M164.34,169.1v33.36l.08,0,.06,0h.06l.06,0V169.1Z" transform="translate(-14.49 -68.37)"/><rect class="cls-7" x="158.49" y="172.11" width="7.58" height="0.26" transform="translate(-85.71 142.34) rotate(-56.06)"/><rect class="cls-7" x="158.56" y="179.88" width="7.58" height="0.26" transform="matrix(0.56, -0.83, 0.83, 0.56, -92.12, 145.83)"/><rect class="cls-7" x="158.56" y="196.2" width="7.58" height="0.26" transform="translate(-105.67 153.04) rotate(-56.06)"/><rect class="cls-7" x="158.56" y="188.86" width="7.58" height="0.26" transform="matrix(0.56, -0.83, 0.83, 0.56, -99.58, 149.8)"/><rect class="cls-7" x="166.45" y="176.31" width="0.26" height="7.58" transform="translate(-86.71 55.52) rotate(-33.99)"/><rect class="cls-7" x="166.45" y="192.55" width="0.26" height="7.58" transform="translate(-95.78 58.29) rotate(-33.99)"/><rect class="cls-7" x="166.45" y="185.21" width="0.26" height="7.58" transform="translate(-91.68 57.04) rotate(-33.99)"/><rect class="cls-7" x="166.48" y="168.45" width="0.26" height="7.58" transform="translate(-82.31 54.2) rotate(-33.99)"/><polygon class="cls-7" points="150.26 100.87 149.65 100.87 149.96 100.35 150.26 100.87"/><polygon class="cls-7" points="174.77 60.42 175.03 60.42 175.03 24.46 174.77 24.1 174.77 60.42"/><polygon class="cls-7" points="170.49 26.84 170.7 26.99 173.66 22.61 173.48 22.39 170.49 26.84"/><rect class="cls-7" x="183.49" y="99.78" width="7.58" height="0.26" transform="matrix(0.56, -0.83, 0.83, 0.56, -14.66, 131.13)"/><rect class="cls-7" x="183.49" y="116.1" width="7.58" height="0.26" transform="translate(-28.2 138.34) rotate(-56.06)"/><rect class="cls-7" x="183.49" y="108.76" width="7.58" height="0.26" transform="translate(-22.11 135.1) rotate(-56.06)"/><rect class="cls-7" x="191.38" y="96.2" width="0.26" height="7.58" transform="matrix(0.83, -0.56, 0.56, 0.83, -37.67, 55.77)"/><rect class="cls-7" x="191.38" y="112.45" width="0.26" height="7.58" transform="translate(-46.75 58.54) rotate(-33.99)"/><rect class="cls-7" x="191.38" y="105.1" width="0.26" height="7.58" transform="matrix(0.83, -0.56, 0.56, 0.83, -42.65, 57.29)"/><rect class="cls-7" x="183.97" y="51.29" width="0.14" height="21.27"/><rect class="cls-7" x="195.34" y="121.26" width="4.05" height="0.14" transform="translate(-27.98 148.97) rotate(-56.06)"/><rect class="cls-7" x="195.38" y="125.42" width="4.05" height="0.14" transform="translate(-31.41 150.83) rotate(-56.06)"/><rect class="cls-7" x="195.38" y="134.14" width="4.05" height="0.14" transform="translate(-38.65 154.69) rotate(-56.06)"/><rect class="cls-7" x="195.38" y="130.22" width="4.05" height="0.14" transform="translate(-35.39 152.95) rotate(-56.06)"/><rect class="cls-7" x="199.6" y="123.51" width="0.14" height="4.05" transform="translate(-50.55 64.69) rotate(-33.99)"/><rect class="cls-7" x="199.6" y="132.19" width="0.14" height="4.05" transform="translate(-55.41 66.17) rotate(-33.99)"/><rect class="cls-7" x="199.6" y="128.26" width="0.14" height="4.05" transform="translate(-53.21 65.5) rotate(-33.99)"/><path class="cls-7" d="M200.55,122.63s0,0,0,0a.45.45,0,0,1,0-.11l-1.94-2.87-.12.07,2.08,3.08a.59.59,0,0,1,0-.13Z" transform="translate(-14.49 -68.37)"/><polygon class="cls-7" points="184.19 51.36 183.87 51.36 184.03 51.08 184.19 51.36"/><path class="cls-7" d="M174.42,198.15V178.46h-.15v19.77Z" transform="translate(-14.49 -68.37)"/><rect class="cls-7" x="171.15" y="180.07" width="4.05" height="0.14" transform="translate(-87.45 154.87) rotate(-56.06)"/><rect class="cls-7" x="171.19" y="184.22" width="4.05" height="0.14" transform="translate(-90.88 156.74) rotate(-56.06)"/><rect class="cls-7" x="171.19" y="192.95" width="4.05" height="0.14" transform="translate(-98.12 160.59) rotate(-56.06)"/><rect class="cls-7" x="171.19" y="189.03" width="4.05" height="0.14" transform="translate(-94.87 158.86) rotate(-56.06)"/><rect class="cls-7" x="175.41" y="182.32" width="0.14" height="4.05" transform="matrix(0.83, -0.56, 0.56, 0.83, -87.56, 61.22)"/><rect class="cls-7" x="175.41" y="191" width="0.14" height="4.05" transform="translate(-92.41 62.7) rotate(-33.99)"/><rect class="cls-7" x="175.41" y="187.07" width="0.14" height="4.05" transform="matrix(0.83, -0.56, 0.56, 0.83, -90.22, 62.03)"/><rect class="cls-7" x="175.42" y="178.12" width="0.14" height="4.05" transform="matrix(0.83, -0.56, 0.56, 0.83, -85.21, 60.51)"/><polygon class="cls-7" points="160 110.17 159.68 110.17 159.84 109.89 160 110.17"/><rect class="cls-7" x="164.45" y="40.55" width="0.14" height="21.27"/><rect class="cls-7" x="175.81" y="110.53" width="4.05" height="0.14" transform="translate(-27.69 128.02) rotate(-56.06)"/><rect class="cls-7" x="175.85" y="114.68" width="4.05" height="0.14" transform="translate(-31.12 129.89) rotate(-56.06)"/><rect class="cls-7" x="175.85" y="123.4" width="4.05" height="0.14" transform="translate(-38.36 133.74) rotate(-56.06)"/><rect class="cls-7" x="175.85" y="119.48" width="4.05" height="0.14" transform="translate(-35.11 132.01) rotate(-56.06)"/><rect class="cls-7" x="180.07" y="112.77" width="0.14" height="4.05" transform="translate(-47.89 51.94) rotate(-33.99)"/><rect class="cls-7" x="180.07" y="121.45" width="0.14" height="4.05" transform="translate(-52.74 53.42) rotate(-33.99)"/><rect class="cls-7" x="180.07" y="117.53" width="0.14" height="4.05" transform="translate(-50.55 52.75) rotate(-33.99)"/><rect class="cls-7" x="180.08" y="108.57" width="0.14" height="4.05" transform="translate(-45.54 51.23) rotate(-33.99)"/><polygon class="cls-7" points="164.67 40.62 164.34 40.62 164.5 40.34 164.67 40.62"/><path class="cls-7" d="M184.6,189.54V137.17h-.39V190A2.52,2.52,0,0,1,184.6,189.54Z" transform="translate(-14.49 -68.37)"/><rect class="cls-7" x="175.52" y="141.65" width="11.27" height="0.39" transform="matrix(0.56, -0.83, 0.83, 0.56, -52.16, 144.57)"/><rect class="cls-7" x="175.62" y="153.2" width="11.27" height="0.39" transform="matrix(0.56, -0.83, 0.83, 0.56, -61.69, 149.76)"/><rect class="cls-7" x="175.62" y="177.48" width="11.27" height="0.39" transform="translate(-81.84 160.49) rotate(-56.06)"/><rect class="cls-7" x="175.62" y="166.56" width="11.27" height="0.39" transform="translate(-72.78 155.66) rotate(-56.06)"/><rect class="cls-7" x="187.36" y="147.89" width="0.39" height="11.27" transform="translate(-68.27 62.7) rotate(-33.99)"/><rect class="cls-7" x="187.36" y="172.04" width="0.39" height="11.27" transform="translate(-81.77 66.83) rotate(-33.99)"/><rect class="cls-7" x="187.36" y="161.12" width="0.39" height="11.27" transform="translate(-75.67 64.96) rotate(-33.99)"/><rect class="cls-7" x="187.4" y="136.21" width="0.39" height="11.27" transform="matrix(0.83, -0.56, 0.56, 0.83, -61.73, 60.73)"/><polygon class="cls-7" points="170.33 69.01 169.43 69.01 169.88 68.23 170.33 69.01"/><rect class="cls-7" x="139.87" y="17.78" width="0.27" height="39.98"/><polygon class="cls-7" points="139.83 17.71 138.62 19.5 138.25 20.52 140.05 17.86 139.83 17.71"/><line class="cls-7" x1="135.85" y1="31.96" x2="135.65" y2="31.83"/><polyline class="cls-7" points="136.18 31.03 139.9 25.51 140.12 25.66 136.13 31.57"/><polyline class="cls-7" points="136.7 47.13 140.12 42.06 139.9 41.92 136.66 46.71"/><polyline class="cls-7" points="136.12 40.14 139.9 34.54 140.12 34.69 136.14 40.58"/><rect class="cls-7" x="156.49" y="93.39" width="0.27" height="7.61" transform="translate(-42.07 35.79) rotate(-33.99)"/><rect class="cls-7" x="156.49" y="109.71" width="0.27" height="7.61" transform="matrix(0.83, -0.56, 0.56, 0.83, -51.19, 38.58)"/><rect class="cls-7" x="156.49" y="102.33" width="0.27" height="7.61" transform="translate(-47.07 37.32) rotate(-33.99)"/><rect class="cls-7" x="156.52" y="85.5" width="0.27" height="7.61" transform="translate(-37.65 34.46) rotate(-33.99)"/><polygon class="cls-7" points="140.29 17.92 139.68 17.92 139.99 17.39 140.29 17.92"/><rect class="cls-7" x="149.25" y="9.43" width="0.12" height="18.62"/><rect class="cls-7" x="161" y="79.21" width="3.54" height="0.12" transform="translate(-8.36 101.69) rotate(-56.06)"/><rect class="cls-7" x="161.04" y="82.84" width="3.54" height="0.12" transform="translate(-11.36 103.32) rotate(-56.06)"/><rect class="cls-7" x="161.04" y="90.48" width="3.54" height="0.12" transform="translate(-17.7 106.7) rotate(-56.06)"/><rect class="cls-7" x="161.04" y="87.05" width="3.54" height="0.12" transform="translate(-14.85 105.18) rotate(-56.06)"/><rect class="cls-7" x="164.73" y="81.17" width="0.12" height="3.54" transform="matrix(0.83, -0.56, 0.56, 0.83, -32.71, 37.92)"/><rect class="cls-7" x="164.73" y="88.77" width="0.12" height="3.54" transform="translate(-36.95 39.22) rotate(-33.99)"/><rect class="cls-7" x="164.73" y="85.34" width="0.12" height="3.54" transform="matrix(0.83, -0.56, 0.56, 0.83, -35.03, 38.63)"/><rect class="cls-7" x="164.74" y="77.5" width="0.12" height="3.54" transform="translate(-30.65 37.3) rotate(-33.99)"/><polyline class="cls-7" points="149.36 9.36 149.44 9.5 149.16 9.5 149.23 9.37"/><rect class="cls-7" x="154.3" y="24.35" width="0.12" height="18.62"/><rect class="cls-7" x="166.06" y="94.13" width="3.54" height="0.12" transform="translate(-18.5 112.47) rotate(-56.06)"/><rect class="cls-7" x="166.09" y="97.76" width="3.54" height="0.12" transform="translate(-21.5 114.1) rotate(-56.06)"/><rect class="cls-7" x="166.09" y="105.4" width="3.54" height="0.12" transform="translate(-27.84 117.48) rotate(-56.06)"/><rect class="cls-7" x="166.09" y="101.96" width="3.54" height="0.12" transform="translate(-24.99 115.96) rotate(-56.06)"/><rect class="cls-7" x="169.78" y="96.09" width="0.12" height="3.54" transform="translate(-40.18 43.29) rotate(-33.99)"/><rect class="cls-7" x="169.78" y="103.69" width="0.12" height="3.54" transform="matrix(0.83, -0.56, 0.56, 0.83, -44.43, 44.59)"/><rect class="cls-7" x="169.78" y="100.25" width="0.12" height="3.54" transform="translate(-42.51 44) rotate(-33.99)"/><rect class="cls-7" x="169.8" y="92.42" width="0.12" height="3.54" transform="matrix(0.83, -0.56, 0.56, 0.83, -38.12, 42.67)"/><polygon class="cls-7" points="154.49 24.41 154.21 24.41 154.35 24.17 154.49 24.41"/><polyline class="cls-7" points="105.08 121.42 105.08 103.66 105.26 103.66 105.26 121.62"/><rect class="cls-7" x="115.51" y="174.12" width="5.27" height="0.18" transform="translate(-106.84 106.59) rotate(-56.06)"/><rect class="cls-7" x="115.56" y="179.52" width="5.27" height="0.18" transform="translate(-111.3 109.02) rotate(-56.06)"/><polyline class="cls-7" points="104.66 121 105.09 120.35 105.25 120.46 104.79 121.13"/><path class="cls-7" d="M119.58,183.62l-2.37,3.53h0l.05,0,0,0h0l0,0,2.41-3.57Z" transform="translate(-14.49 -68.37)"/><rect class="cls-7" x="121.04" y="177.04" width="0.18" height="5.27" transform="translate(-94.23 30.04) rotate(-33.99)"/><polygon class="cls-7" points="105.25 120.35 105.09 120.46 107.03 123.33 107.59 123.83 105.25 120.35"/><rect class="cls-7" x="121.04" y="183.22" width="0.18" height="5.27" transform="translate(-97.69 31.1) rotate(-33.99)"/><rect class="cls-7" x="121.06" y="171.58" width="0.18" height="5.27" transform="translate(-91.18 29.12) rotate(-33.99)"/><polygon class="cls-7" points="105.36 103.76 104.94 103.76 105.15 103.39 105.36 103.76"/><path class="cls-7" d="M104.12,154l.09.54v-7.67H104v6.24C104.05,153.45,104.07,153.75,104.12,154Z" transform="translate(-14.49 -68.37)"/><polyline class="cls-7" points="88.95 79.63 89.65 78.59 89.5 78.49 88.93 79.33"/><rect class="cls-7" x="105.5" y="151.91" width="0.18" height="5.27" transform="translate(-82.79 16.92) rotate(-33.94)"/><path class="cls-7" d="M105.12,159.88h0a1,1,0,0,1,.09.46L107,163l.16-.11Z" transform="translate(-14.49 -68.37)"/><rect class="cls-7" x="105.52" y="146.46" width="0.18" height="5.27" transform="translate(-79.79 16.14) rotate(-33.99)"/><polygon class="cls-7" points="89.82 78.63 89.4 78.63 89.61 78.27 89.82 78.63"/><rect class="cls-7" x="107.51" y="61.37" width="0.18" height="27.65"/><rect class="cls-7" x="117.94" y="131.83" width="5.27" height="0.18" transform="translate(-70.68 89.93) rotate(-56.06)"/><rect class="cls-7" x="117.99" y="137.23" width="5.27" height="0.18" transform="translate(-75.14 92.36) rotate(-56.06)"/><rect class="cls-7" x="117.99" y="148.57" width="5.27" height="0.18" transform="translate(-84.55 97.37) rotate(-56.06)"/><rect class="cls-7" x="117.99" y="143.47" width="5.27" height="0.18" transform="translate(-80.32 95.12) rotate(-56.06)"/><rect class="cls-7" x="123.47" y="134.74" width="0.18" height="5.27" transform="translate(-70.18 24.17) rotate(-33.99)"/><rect class="cls-7" x="123.47" y="146.03" width="0.18" height="5.27" transform="translate(-76.49 26.1) rotate(-33.99)"/><rect class="cls-7" x="123.47" y="140.93" width="0.18" height="5.27" transform="translate(-73.63 25.23) rotate(-33.99)"/><rect class="cls-7" x="123.49" y="129.29" width="0.18" height="5.27" transform="translate(-67.12 23.25) rotate(-33.99)"/><polygon class="cls-7" points="107.8 61.46 107.38 61.46 107.59 61.1 107.8 61.46"/><path class="cls-7" d="M139.12,201.63v-1.51" transform="translate(-14.49 -68.37)"/><path class="cls-7" d="M139.31,200.11v1.52" transform="translate(-14.49 -68.37)"/><polyline class="cls-7" points="124.63 131.47 124.63 105.61 124.82 105.61 124.82 131.47"/><rect class="cls-7" x="135.06" y="176.07" width="5.27" height="0.18" transform="translate(-99.82 123.68) rotate(-56.06)"/><rect class="cls-7" x="135.11" y="181.46" width="5.27" height="0.18" transform="translate(-104.28 126.1) rotate(-56.06)"/><rect class="cls-7" x="135.11" y="192.81" width="5.27" height="0.18" transform="translate(-113.69 131.12) rotate(-56.06)"/><rect class="cls-7" x="135.11" y="187.71" width="5.27" height="0.18" transform="translate(-109.46 128.86) rotate(-56.06)"/><rect class="cls-7" x="140.6" y="178.98" width="0.18" height="5.27" transform="translate(-91.98 41.3) rotate(-33.99)"/><rect class="cls-7" x="140.6" y="190.27" width="0.18" height="5.27" transform="translate(-98.29 43.23) rotate(-33.99)"/><rect class="cls-7" x="140.6" y="185.17" width="0.18" height="5.27" transform="translate(-95.44 42.36) rotate(-33.99)"/><rect class="cls-7" x="140.62" y="173.53" width="0.18" height="5.27" transform="translate(-88.93 40.38) rotate(-33.99)"/><polygon class="cls-7" points="124.92 105.7 124.5 105.7 124.71 105.34 124.92 105.7"/><polygon class="cls-7" points="115.41 85.98 115.11 85.98 115.11 128.87 115.41 129.01 115.41 85.98"/><rect class="cls-7" x="122.87" y="157.81" width="8.73" height="0.3" transform="translate(-89.35 106.96) rotate(-56.06)"/><rect class="cls-7" x="122.95" y="166.76" width="8.73" height="0.3" transform="translate(-96.74 110.98) rotate(-56.06)"/><rect class="cls-7" x="122.95" y="185.57" width="8.73" height="0.3" transform="translate(-112.34 119.29) rotate(-56.06)"/><rect class="cls-7" x="122.95" y="177.11" width="8.73" height="0.3" transform="translate(-105.32 115.55) rotate(-56.06)"/><rect class="cls-7" x="132.04" y="162.65" width="0.3" height="8.73" transform="translate(-85.27 34.06) rotate(-33.99)"/><rect class="cls-7" x="132.04" y="181.36" width="0.3" height="8.73" transform="translate(-95.73 37.25) rotate(-33.99)"/><rect class="cls-7" x="132.04" y="172.9" width="0.3" height="8.73" transform="translate(-91 35.81) rotate(-33.99)"/><rect class="cls-7" x="132.07" y="153.6" width="0.3" height="8.73" transform="translate(-80.21 32.53) rotate(-33.99)"/><polygon class="cls-7" points="115.58 86.14 114.89 86.14 115.24 85.53 115.58 86.14"/><rect class="cls-7" x="119.89" y="12.6" width="0.19" height="29.31"/><rect class="cls-7" x="130.07" y="83.19" width="5.58" height="0.19" transform="translate(-24.9 78.65) rotate(-56.06)"/><rect class="cls-7" x="130.13" y="88.91" width="5.58" height="0.19" transform="translate(-29.63 81.22) rotate(-56.06)"/><rect class="cls-7" x="130.13" y="100.94" width="5.58" height="0.19" transform="translate(-39.61 86.53) rotate(-56.06)"/><rect class="cls-7" x="130.13" y="95.53" width="5.58" height="0.19" transform="translate(-35.12 84.14) rotate(-56.06)"/><rect class="cls-7" x="135.94" y="86.28" width="0.19" height="5.58" transform="matrix(0.83, -0.56, 0.56, 0.83, -41.04, 22.89)"/><rect class="cls-7" x="135.94" y="98.25" width="0.19" height="5.58" transform="matrix(0.83, -0.56, 0.56, 0.83, -47.73, 24.94)"/><rect class="cls-7" x="135.94" y="92.84" width="0.19" height="5.58" transform="translate(-44.71 24.01) rotate(-33.99)"/><rect class="cls-7" x="135.96" y="80.5" width="0.19" height="5.58" transform="translate(-37.8 21.92) rotate(-33.99)"/><polygon class="cls-7" points="120.19 12.71 119.75 12.71 119.97 12.32 120.19 12.71"/><rect class="cls-7" x="126.75" y="31.88" width="0.12" height="18"/><rect class="cls-7" x="138.6" y="101.61" width="3.43" height="0.12" transform="translate(-36.86 92.95) rotate(-56.06)"/><rect class="cls-7" x="138.63" y="105.13" width="3.43" height="0.12" transform="translate(-39.77 94.53) rotate(-56.06)"/><rect class="cls-7" x="138.63" y="112.51" width="3.43" height="0.12" transform="translate(-45.89 97.79) rotate(-56.06)"/><rect class="cls-7" x="138.63" y="109.19" width="3.43" height="0.12" transform="translate(-43.14 96.32) rotate(-56.06)"/><rect class="cls-7" x="142.2" y="103.51" width="0.12" height="3.43" transform="translate(-49.01 29.13) rotate(-33.99)"/><rect class="cls-7" x="142.2" y="110.86" width="0.12" height="3.43" transform="translate(-53.12 30.39) rotate(-33.99)"/><rect class="cls-7" x="142.2" y="107.54" width="0.12" height="3.43" transform="translate(-51.26 29.82) rotate(-33.99)"/><rect class="cls-7" x="142.22" y="99.96" width="0.12" height="3.43" transform="translate(-47.02 28.53) rotate(-33.99)"/><polygon class="cls-7" points="126.94 31.94 126.67 31.94 126.8 31.71 126.94 31.94"/><rect class="cls-7" x="115.53" y="42.69" width="0.12" height="18"/><rect class="cls-7" x="127.38" y="112.42" width="3.43" height="0.12" transform="matrix(0.56, -0.83, 0.83, 0.56, -50.79, 88.41)"/><rect class="cls-7" x="127.41" y="115.93" width="3.43" height="0.12" transform="matrix(0.56, -0.83, 0.83, 0.56, -53.69, 89.99)"/><rect class="cls-7" x="127.41" y="123.32" width="3.43" height="0.12" transform="matrix(0.56, -0.83, 0.83, 0.56, -59.82, 93.26)"/><rect class="cls-7" x="127.41" y="120" width="3.43" height="0.12" transform="matrix(0.56, -0.83, 0.83, 0.56, -57.06, 91.79)"/><rect class="cls-7" x="130.98" y="114.32" width="0.12" height="3.43" transform="matrix(0.83, -0.56, 0.56, 0.83, -56.97, 24.71)"/><rect class="cls-7" x="130.98" y="121.66" width="0.12" height="3.43" transform="translate(-61.07 25.96) rotate(-33.99)"/><rect class="cls-7" x="130.98" y="118.34" width="0.12" height="3.43" transform="matrix(0.83, -0.56, 0.56, 0.83, -59.22, 25.39)"/><rect class="cls-7" x="131" y="110.76" width="0.12" height="3.43" transform="translate(-54.98 24.11) rotate(-33.99)"/><polygon class="cls-7" points="115.72 42.75 115.45 42.75 115.58 42.51 115.72 42.75"/><polygon class="cls-7" points="94.25 37.87 94.25 90.33 94.67 90.33 94.67 36.91 94.25 37.87"/><polyline class="cls-7" points="92.07 44.12 94.63 40.32 94.29 40.09 92.48 42.77"/><polyline class="cls-7" points="88.63 74.03 94.29 65.64 94.63 65.87 88.66 74.73"/><polygon class="cls-7" points="94.29 54.15 88.92 62.11 88.87 62.93 94.63 54.38 94.29 54.15"/><rect class="cls-7" x="112.06" y="107.69" width="0.41" height="11.86" transform="translate(-58.83 13.8) rotate(-33.99)"/><rect class="cls-7" x="112.06" y="133.11" width="0.41" height="11.86" transform="translate(-73.04 18.14) rotate(-33.99)"/><rect class="cls-7" x="112.06" y="121.62" width="0.41" height="11.86" transform="translate(-66.61 16.18) rotate(-33.99)"/><polygon class="cls-7" points="97.27 31.76 97.05 32.18 100.97 37.99 101.31 37.76 97.27 31.76"/></g></svg>