<svg xmlns="http://www.w3.org/2000/svg" viewBox="0 0 276.21 193.56"><defs><style>.cls-1{fill:#004833;}.cls-2{fill:none;stroke:#fff;stroke-miterlimit:10;stroke-width:0.5px;}.cls-3{fill:#fff;}.cls-4,.cls-7{font-size:40px;font-family:Quicksand-Medium, Quicksand;font-weight:500;}.cls-4,.cls-6,.cls-7{fill:#0d2116;}.cls-5{letter-spacing:-0.04em;}.cls-6{font-size:12px;font-family:Quicksand-Light, Quicksand;font-weight:300;}.cls-7{letter-spacing:0em;}.cls-8{letter-spacing:0em;}</style></defs><g id="Layer_1" data-name="Layer 1"><path class="cls-1" d="M161.64,181c-1.81,21.72-16.51,28.16-16.51,28.16,22.1,2,40.6-3.74,54.54-32.65,10.21-21.16,11.62-71-12.65-93-8.25-7.5-29.89-19.58-34.5,11.4C149.08,117.94,163.37,160.22,161.64,181Z" transform="translate(-14.49 -68.37)"/><path class="cls-1" d="M146.58,98.83c1.81-21.72,16.5-28.16,16.5-28.16-22.09-2-40.59,3.74-54.53,32.65-10.21,21.16-11.62,71,12.64,93,8.26,7.49,29.9,19.57,34.51-11.41C159.14,161.86,144.85,119.58,146.58,98.83Z" transform="translate(-14.49 -68.37)"/><line class="cls-2" x1="117.94" y1="118.07" x2="117.94" y2="65.15"/><line class="cls-2" x1="107.41" y1="118.07" x2="107.41" y2="99.04"/><polyline class="cls-2" points="107.41 98.87 107.41 89.7 107.41 89.52 107.41 82.1 107.41 81.93 107.41 81.78"/><line class="cls-2" x1="128.58" y1="81.78" x2="128.58" y2="118.07"/><line class="cls-2" x1="117.85" y1="65.15" x2="112.21" y2="73.51"/><line class="cls-2" x1="117.94" y1="75.48" x2="112.31" y2="83.84"/><line class="cls-2" x1="117.94" y1="97.2" x2="112.31" y2="105.56"/><line class="cls-2" x1="117.94" y1="87.44" x2="112.31" y2="95.79"/><line class="cls-2" x1="117.94" y1="75.6" x2="123.57" y2="83.95"/><line class="cls-2" x1="117.94" y1="97.2" x2="123.57" y2="105.56"/><line class="cls-2" x1="117.94" y1="87.44" x2="123.57" y2="95.79"/><line class="cls-2" x1="117.98" y1="65.15" x2="123.61" y2="73.51"/><path class="cls-2" d="M124.61,154.33" transform="translate(-14.49 -68.37)"/><path class="cls-2" d="M121.79,150.15" transform="translate(-14.49 -68.37)"/><path class="cls-2" d="M119.2,162.07" transform="translate(-14.49 -68.37)"/><path class="cls-2" d="M122,157.89" transform="translate(-14.49 -68.37)"/><path class="cls-2" d="M124.61,162.07" transform="translate(-14.49 -68.37)"/><path class="cls-2" d="M121.79,157.89" transform="translate(-14.49 -68.37)"/><path class="cls-2" d="M119.09,171.42" transform="translate(-14.49 -68.37)"/><path class="cls-2" d="M121.9,167.24" transform="translate(-14.49 -68.37)"/><path class="cls-2" d="M124.5,171.42" transform="translate(-14.49 -68.37)"/><path class="cls-2" d="M121.68,167.24" transform="translate(-14.49 -68.37)"/><line class="cls-2" x1="107.41" y1="81.75" x2="103.75" y2="87.19"/><line class="cls-2" x1="107.41" y1="89.52" x2="103.75" y2="94.96"/><line class="cls-2" x1="107.35" y1="98.95" x2="103.74" y2="104.31"/><path class="cls-2" d="M124.61,154.3" transform="translate(-14.49 -68.37)"/><path class="cls-2" d="M121.79,150.12" transform="translate(-14.49 -68.37)"/><path class="cls-2" d="M119.2,162.07" transform="translate(-14.49 -68.37)"/><path class="cls-2" d="M122,157.89" transform="translate(-14.49 -68.37)"/><path class="cls-2" d="M124.61,162.07" transform="translate(-14.49 -68.37)"/><path class="cls-2" d="M121.79,157.89" transform="translate(-14.49 -68.37)"/><path class="cls-2" d="M119.09,171.42" transform="translate(-14.49 -68.37)"/><path class="cls-2" d="M121.9,167.24" transform="translate(-14.49 -68.37)"/><polygon class="cls-2" points="117.91 64.99 117.81 65.16 118.01 65.16 117.91 64.99"/><polygon class="cls-3" points="107.36 81.22 106.85 82.1 107.86 82.1 107.36 81.22"/><line class="cls-2" x1="107.29" y1="81.75" x2="110.96" y2="87.19"/><line class="cls-2" x1="107.29" y1="89.52" x2="110.96" y2="94.96"/><line class="cls-2" x1="110.96" y1="104.31" x2="107.41" y2="99.04"/><line class="cls-2" x1="107.35" y1="98.95" x2="107.29" y2="98.87"/><path class="cls-2" d="M145.89,154.43" transform="translate(-14.49 -68.37)"/><path class="cls-2" d="M143.07,150.25" transform="translate(-14.49 -68.37)"/><path class="cls-2" d="M140.48,162.17" transform="translate(-14.49 -68.37)"/><path class="cls-2" d="M143.3,158" transform="translate(-14.49 -68.37)"/><path class="cls-2" d="M145.89,162.17" transform="translate(-14.49 -68.37)"/><path class="cls-2" d="M143.07,158" transform="translate(-14.49 -68.37)"/><path class="cls-2" d="M140.37,171.52" transform="translate(-14.49 -68.37)"/><path class="cls-2" d="M143.19,167.34" transform="translate(-14.49 -68.37)"/><path class="cls-2" d="M145.78,171.52" transform="translate(-14.49 -68.37)"/><path class="cls-2" d="M143,167.34" transform="translate(-14.49 -68.37)"/><line class="cls-2" x1="128.7" y1="81.85" x2="125.03" y2="87.29"/><line class="cls-2" x1="128.7" y1="89.63" x2="125.03" y2="95.06"/><line class="cls-2" x1="128.7" y1="98.97" x2="125.03" y2="104.41"/><path class="cls-2" d="M145.89,154.4" transform="translate(-14.49 -68.37)"/><path class="cls-2" d="M143.07,150.22" transform="translate(-14.49 -68.37)"/><path class="cls-2" d="M140.48,162.17" transform="translate(-14.49 -68.37)"/><path class="cls-2" d="M143.3,158" transform="translate(-14.49 -68.37)"/><path class="cls-2" d="M145.89,162.17" transform="translate(-14.49 -68.37)"/><path class="cls-2" d="M143.07,158" transform="translate(-14.49 -68.37)"/><path class="cls-2" d="M140.37,171.52" transform="translate(-14.49 -68.37)"/><path class="cls-2" d="M143.19,167.34" transform="translate(-14.49 -68.37)"/><polygon class="cls-3" points="128.64 81.32 128.13 82.2 129.15 82.2 128.64 81.32"/><line class="cls-2" x1="128.58" y1="81.85" x2="132.24" y2="87.29"/><line class="cls-2" x1="128.58" y1="89.63" x2="132.24" y2="95.06"/><line class="cls-2" x1="128.58" y1="98.97" x2="132.24" y2="104.41"/><polygon class="cls-3" points="107.41 99.04 107.35 98.95 107.41 98.87 107.41 99.04"/><path class="cls-3" d="M150.08,186.44a151.72,151.72,0,0,1-17.73.93,150.65,150.65,0,0,1-16-.93Z" transform="translate(-14.49 -68.37)"/></g><g id="Layer_2" data-name="Layer 2"><text class="cls-4" transform="translate(0 34)">Ca<tspan class="cls-5" x="50.36" y="0">f</tspan><tspan x="64.4" y="0">e</tspan></text><text class="cls-6" transform="translate(75.89 46.08)">in </text><text class="cls-7" transform="translate(189.97 136.72)">P<tspan class="cls-8" x="23.76" y="0">ark</tspan></text><text class="cls-6" transform="translate(192.14 104.31)">the</text></g></svg>