<svg xmlns="http://www.w3.org/2000/svg" viewBox="0 0 276.21 193.56"><defs><style>.cls-1{fill:#004833;}.cls-2{fill:none;stroke:#fff;stroke-miterlimit:10;stroke-width:0.5px;}.cls-3{fill:#fff;}.cls-4,.cls-7{font-size:40px;font-family:Quicksand-Medium, Quicksand;font-weight:500;}.cls-4,.cls-6,.cls-7{fill:#0d2116;}.cls-5{letter-spacing:-0.04em;}.cls-6{font-size:12px;font-family:Quicksand-Light, Quicksand;font-weight:300;}.cls-7{letter-spacing:0em;}.cls-8{letter-spacing:0em;}</style></defs><g id="Layer_1" data-name="Layer 1"><path class="cls-1" d="M160.89,182.36c-1.74,20.81-15.81,27-15.81,27,21.17,1.89,38.89-3.59,52.24-31.28,9.78-20.27,11.13-68-12.11-89.13-7.91-7.18-28.64-18.75-33.06,10.93C148.86,122,162.55,162.48,160.89,182.36Z" transform="translate(-14.49 -68.37)"/><path class="cls-1" d="M146.46,103.67c1.74-20.81,15.81-27,15.81-27C141.11,74.8,123.39,80.28,110,108c-9.78,20.27-11.13,68,12.12,89.13,7.9,7.18,28.63,18.75,33-10.93C158.49,164.05,144.8,123.55,146.46,103.67Z" transform="translate(-14.49 -68.37)"/><path class="cls-2" d="M125.42,156.83" transform="translate(-14.49 -68.37)"/><path class="cls-2" d="M125.42,164.25" transform="translate(-14.49 -68.37)"/><path class="cls-2" d="M125.31,173.2" transform="translate(-14.49 -68.37)"/><path class="cls-2" d="M125.42,156.81" transform="translate(-14.49 -68.37)"/><path class="cls-2" d="M125.42,164.25" transform="translate(-14.49 -68.37)"/><line class="cls-2" x1="130.52" y1="141.97" x2="130.52" y2="91.27"/><line class="cls-2" x1="130.43" y1="91.27" x2="125.03" y2="99.28"/><line class="cls-2" x1="130.52" y1="101.17" x2="125.12" y2="109.17"/><line class="cls-2" x1="130.52" y1="121.97" x2="125.12" y2="129.98"/><line class="cls-2" x1="130.52" y1="112.62" x2="125.12" y2="120.62"/><line class="cls-2" x1="130.52" y1="101.28" x2="135.92" y2="109.28"/><line class="cls-2" x1="130.52" y1="121.97" x2="135.92" y2="129.98"/><line class="cls-2" x1="130.52" y1="112.62" x2="135.92" y2="120.62"/><line class="cls-2" x1="130.56" y1="91.27" x2="135.96" y2="99.28"/><polygon class="cls-2" points="130.49 91.12 130.4 91.28 130.59 91.28 130.49 91.12"/><line class="cls-2" x1="96.54" y1="76" x2="96.54" y2="37.83"/><line class="cls-2" x1="96.47" y1="37.83" x2="92.41" y2="43.85"/><line class="cls-2" x1="96.54" y1="45.28" x2="92.47" y2="51.31"/><line class="cls-2" x1="96.54" y1="60.94" x2="92.47" y2="66.97"/><line class="cls-2" x1="96.54" y1="53.9" x2="92.47" y2="59.93"/><line class="cls-2" x1="96.54" y1="45.36" x2="100.6" y2="51.39"/><line class="cls-2" x1="96.54" y1="60.94" x2="100.6" y2="66.97"/><line class="cls-2" x1="96.54" y1="53.9" x2="100.6" y2="59.93"/><line class="cls-2" x1="96.57" y1="37.83" x2="100.63" y2="43.85"/><polygon class="cls-2" points="96.52 37.71 96.45 37.83 96.59 37.83 96.52 37.71"/><line class="cls-2" x1="153.12" y1="136.26" x2="153.12" y2="98.08"/><line class="cls-2" x1="153.06" y1="98.08" x2="148.99" y2="104.11"/><line class="cls-2" x1="153.12" y1="105.54" x2="149.06" y2="111.56"/><line class="cls-2" x1="153.12" y1="121.2" x2="149.06" y2="127.23"/><line class="cls-2" x1="153.12" y1="114.16" x2="149.06" y2="120.18"/><line class="cls-2" x1="153.12" y1="105.62" x2="157.19" y2="111.64"/><line class="cls-2" x1="153.12" y1="121.2" x2="157.19" y2="127.23"/><line class="cls-2" x1="153.12" y1="114.16" x2="157.19" y2="120.18"/><line class="cls-2" x1="153.15" y1="98.08" x2="157.22" y2="104.11"/><polygon class="cls-2" points="153.1 97.97 153.03 98.09 153.17 98.09 153.1 97.97"/><line class="cls-2" x1="181.55" y1="83.53" x2="181.55" y2="32.84"/><line class="cls-2" x1="181.46" y1="32.84" x2="176.06" y2="40.84"/><line class="cls-2" x1="181.55" y1="42.74" x2="176.15" y2="50.74"/><line class="cls-2" x1="181.55" y1="63.54" x2="176.15" y2="71.54"/><line class="cls-2" x1="181.55" y1="54.18" x2="176.15" y2="62.19"/><line class="cls-2" x1="181.55" y1="42.84" x2="186.94" y2="50.85"/><line class="cls-2" x1="181.55" y1="63.54" x2="186.94" y2="71.54"/><line class="cls-2" x1="181.55" y1="54.18" x2="186.94" y2="62.19"/><line class="cls-2" x1="181.59" y1="32.84" x2="186.98" y2="40.84"/><polygon class="cls-2" points="181.52 32.68 181.43 32.84 181.62 32.84 181.52 32.68"/><path class="cls-2" d="M145.81,156.93" transform="translate(-14.49 -68.37)"/><path class="cls-2" d="M140.62,164.35" transform="translate(-14.49 -68.37)"/><path class="cls-2" d="M145.81,164.35" transform="translate(-14.49 -68.37)"/><path class="cls-2" d="M140.52,173.3" transform="translate(-14.49 -68.37)"/><path class="cls-2" d="M145.7,173.3" transform="translate(-14.49 -68.37)"/><path class="cls-2" d="M145.81,156.9" transform="translate(-14.49 -68.37)"/><path class="cls-2" d="M140.62,164.35" transform="translate(-14.49 -68.37)"/><path class="cls-2" d="M145.81,164.35" transform="translate(-14.49 -68.37)"/><path class="cls-2" d="M140.52,173.3" transform="translate(-14.49 -68.37)"/><line class="cls-2" x1="172.26" y1="60.16" x2="172.26" y2="79.96"/><path class="cls-2" d="M186.75,128.58" transform="translate(-14.49 -68.37)"/><path class="cls-2" d="M186.87,132.81" transform="translate(-14.49 -68.37)"/><path class="cls-2" d="M186.75,132.81" transform="translate(-14.49 -68.37)"/><path class="cls-2" d="M186.81,137.91" transform="translate(-14.49 -68.37)"/><path class="cls-2" d="M186.69,137.91" transform="translate(-14.49 -68.37)"/><line class="cls-2" x1="172.32" y1="60.2" x2="170.32" y2="63.17"/><line class="cls-2" x1="172.32" y1="64.44" x2="170.32" y2="67.41"/><line class="cls-2" x1="172.32" y1="69.54" x2="170.32" y2="72.51"/><path class="cls-2" d="M186.75,128.57" transform="translate(-14.49 -68.37)"/><path class="cls-2" d="M186.87,132.81" transform="translate(-14.49 -68.37)"/><path class="cls-2" d="M186.75,132.81" transform="translate(-14.49 -68.37)"/><path class="cls-2" d="M186.81,137.91" transform="translate(-14.49 -68.37)"/><polygon class="cls-3" points="172.29 59.91 172.01 60.39 172.57 60.39 172.29 59.91"/><line class="cls-2" x1="172.26" y1="60.2" x2="174.26" y2="63.17"/><line class="cls-2" x1="172.26" y1="64.44" x2="174.26" y2="67.41"/><line class="cls-2" x1="172.26" y1="69.54" x2="174.26" y2="72.51"/><line class="cls-2" x1="167.08" y1="105.76" x2="167.08" y2="125.56"/><path class="cls-2" d="M181.57,174.18" transform="translate(-14.49 -68.37)"/><path class="cls-2" d="M181.7,178.41" transform="translate(-14.49 -68.37)"/><path class="cls-2" d="M181.57,178.41" transform="translate(-14.49 -68.37)"/><path class="cls-2" d="M181.63,183.51" transform="translate(-14.49 -68.37)"/><path class="cls-2" d="M181.51,183.51" transform="translate(-14.49 -68.37)"/><line class="cls-2" x1="167.14" y1="105.8" x2="165.14" y2="108.76"/><line class="cls-2" x1="167.14" y1="110.04" x2="165.14" y2="113.01"/><line class="cls-2" x1="167.14" y1="115.14" x2="165.14" y2="118.1"/><path class="cls-2" d="M181.57,174.17" transform="translate(-14.49 -68.37)"/><path class="cls-2" d="M181.7,178.41" transform="translate(-14.49 -68.37)"/><path class="cls-2" d="M181.57,178.41" transform="translate(-14.49 -68.37)"/><path class="cls-2" d="M181.63,183.51" transform="translate(-14.49 -68.37)"/><polygon class="cls-3" points="167.11 105.51 166.84 105.99 167.39 105.99 167.11 105.51"/><line class="cls-2" x1="167.08" y1="105.8" x2="169.08" y2="108.76"/><line class="cls-2" x1="167.08" y1="110.04" x2="169.08" y2="113.01"/><line class="cls-2" x1="167.08" y1="115.14" x2="169.08" y2="118.1"/><line class="cls-2" x1="160.77" y1="117.31" x2="160.77" y2="137.12"/><path class="cls-2" d="M175.26,185.74" transform="translate(-14.49 -68.37)"/><path class="cls-2" d="M175.39,190" transform="translate(-14.49 -68.37)"/><path class="cls-2" d="M175.26,190" transform="translate(-14.49 -68.37)"/><path class="cls-2" d="M175.33,195.06" transform="translate(-14.49 -68.37)"/><path class="cls-2" d="M175.2,195.06" transform="translate(-14.49 -68.37)"/><line class="cls-2" x1="160.84" y1="117.35" x2="158.83" y2="120.32"/><line class="cls-2" x1="160.84" y1="121.59" x2="158.83" y2="124.56"/><line class="cls-2" x1="160.84" y1="126.69" x2="158.83" y2="129.66"/><path class="cls-2" d="M175.26,185.72" transform="translate(-14.49 -68.37)"/><path class="cls-2" d="M175.39,190" transform="translate(-14.49 -68.37)"/><path class="cls-2" d="M175.26,190" transform="translate(-14.49 -68.37)"/><path class="cls-2" d="M175.33,195.06" transform="translate(-14.49 -68.37)"/><polygon class="cls-3" points="160.81 117.06 160.53 117.55 161.08 117.55 160.81 117.06"/><line class="cls-2" x1="160.77" y1="117.35" x2="162.77" y2="120.32"/><line class="cls-2" x1="160.77" y1="121.59" x2="162.77" y2="124.56"/><line class="cls-2" x1="160.77" y1="126.69" x2="162.77" y2="129.66"/><line class="cls-2" x1="119.3" y1="105.41" x2="119.3" y2="140.18"/><path class="cls-2" d="M133.8,173.88" transform="translate(-14.49 -68.37)"/><path class="cls-2" d="M134,181.3" transform="translate(-14.49 -68.37)"/><path class="cls-2" d="M133.8,181.3" transform="translate(-14.49 -68.37)"/><path class="cls-2" d="M133.9,190.25" transform="translate(-14.49 -68.37)"/><path class="cls-2" d="M133.69,190.25" transform="translate(-14.49 -68.37)"/><line class="cls-2" x1="119.41" y1="105.48" x2="115.9" y2="110.69"/><line class="cls-2" x1="119.41" y1="112.93" x2="115.9" y2="118.14"/><line class="cls-2" x1="119.41" y1="121.88" x2="115.9" y2="127.09"/><path class="cls-2" d="M133.8,173.85" transform="translate(-14.49 -68.37)"/><path class="cls-2" d="M134,181.3" transform="translate(-14.49 -68.37)"/><path class="cls-2" d="M133.8,181.3" transform="translate(-14.49 -68.37)"/><path class="cls-2" d="M133.9,190.25" transform="translate(-14.49 -68.37)"/><polygon class="cls-3" points="119.36 104.98 118.88 105.82 119.85 105.82 119.36 104.98"/><line class="cls-2" x1="119.3" y1="105.48" x2="122.81" y2="110.69"/><line class="cls-2" x1="119.3" y1="112.93" x2="122.81" y2="118.14"/><line class="cls-2" x1="119.3" y1="121.88" x2="122.81" y2="127.09"/><line class="cls-2" x1="108.51" y1="94.83" x2="108.51" y2="142.97"/><path class="cls-2" d="M123,163.33" transform="translate(-14.49 -68.37)"/><path class="cls-2" d="M123.31,173.6" transform="translate(-14.49 -68.37)"/><path class="cls-2" d="M123,173.6" transform="translate(-14.49 -68.37)"/><path class="cls-2" d="M123.16,186" transform="translate(-14.49 -68.37)"/><path class="cls-2" d="M122.86,186" transform="translate(-14.49 -68.37)"/><line class="cls-2" x1="108.67" y1="94.92" x2="103.8" y2="102.14"/><line class="cls-2" x1="108.67" y1="105.23" x2="103.8" y2="112.45"/><line class="cls-2" x1="108.67" y1="117.63" x2="103.8" y2="124.84"/><path class="cls-2" d="M123,163.29" transform="translate(-14.49 -68.37)"/><path class="cls-2" d="M123.31,173.6" transform="translate(-14.49 -68.37)"/><path class="cls-2" d="M123,173.6" transform="translate(-14.49 -68.37)"/><path class="cls-2" d="M123.16,186" transform="translate(-14.49 -68.37)"/><polygon class="cls-3" points="108.59 94.22 107.92 95.39 109.27 95.39 108.59 94.22"/><line class="cls-2" x1="108.51" y1="94.92" x2="113.37" y2="102.14"/><line class="cls-2" x1="108.51" y1="105.23" x2="113.37" y2="112.45"/><line class="cls-2" x1="108.51" y1="117.63" x2="113.37" y2="124.84"/><line class="cls-2" x1="166.48" y1="33.94" x2="166.48" y2="74.36"/><path class="cls-2" d="M181,102.42" transform="translate(-14.49 -68.37)"/><path class="cls-2" d="M181.22,111.05" transform="translate(-14.49 -68.37)"/><path class="cls-2" d="M181,111.05" transform="translate(-14.49 -68.37)"/><path class="cls-2" d="M181.1,121.46" transform="translate(-14.49 -68.37)"/><path class="cls-2" d="M180.85,121.46" transform="translate(-14.49 -68.37)"/><line class="cls-2" x1="166.61" y1="34.02" x2="162.52" y2="40.08"/><line class="cls-2" x1="166.61" y1="42.68" x2="162.52" y2="48.74"/><line class="cls-2" x1="166.61" y1="53.09" x2="162.52" y2="59.14"/><path class="cls-2" d="M181,102.39" transform="translate(-14.49 -68.37)"/><path class="cls-2" d="M181.22,111.05" transform="translate(-14.49 -68.37)"/><path class="cls-2" d="M181,111.05" transform="translate(-14.49 -68.37)"/><path class="cls-2" d="M181.1,121.46" transform="translate(-14.49 -68.37)"/><polygon class="cls-3" points="166.55 33.43 165.98 34.41 167.11 34.41 166.55 33.43"/><line class="cls-2" x1="166.47" y1="34.02" x2="170.56" y2="40.08"/><line class="cls-2" x1="166.47" y1="42.68" x2="170.56" y2="48.74"/><line class="cls-2" x1="166.47" y1="53.09" x2="170.56" y2="59.14"/><line class="cls-2" x1="126.22" y1="40.9" x2="126.22" y2="22.67"/><polyline class="cls-2" points="126.22 22.5 126.22 13.71 126.22 13.55 126.22 6.44 126.22 6.27 126.22 6.13"/><path class="cls-2" d="M140.6,74.5" transform="translate(-14.49 -68.37)"/><path class="cls-2" d="M138.12,85.92" transform="translate(-14.49 -68.37)"/><path class="cls-2" d="M140.81,81.92" transform="translate(-14.49 -68.37)"/><path class="cls-2" d="M140.6,81.92" transform="translate(-14.49 -68.37)"/><path class="cls-2" d="M138,94.87" transform="translate(-14.49 -68.37)"/><path class="cls-2" d="M140.71,90.87" transform="translate(-14.49 -68.37)"/><path class="cls-2" d="M140.49,90.87" transform="translate(-14.49 -68.37)"/><line class="cls-2" x1="126.22" y1="6.1" x2="122.71" y2="11.31"/><line class="cls-2" x1="126.22" y1="13.55" x2="122.71" y2="18.76"/><line class="cls-2" x1="126.16" y1="22.58" x2="122.7" y2="27.71"/><path class="cls-2" d="M140.6,74.47" transform="translate(-14.49 -68.37)"/><path class="cls-2" d="M138.12,85.92" transform="translate(-14.49 -68.37)"/><path class="cls-2" d="M140.81,81.92" transform="translate(-14.49 -68.37)"/><path class="cls-2" d="M140.6,81.92" transform="translate(-14.49 -68.37)"/><path class="cls-2" d="M138,94.87" transform="translate(-14.49 -68.37)"/><path class="cls-2" d="M140.71,90.87" transform="translate(-14.49 -68.37)"/><polygon class="cls-3" points="126.17 5.59 125.68 6.44 126.65 6.44 126.17 5.59"/><line class="cls-2" x1="126.1" y1="6.1" x2="129.62" y2="11.31"/><line class="cls-2" x1="126.1" y1="13.55" x2="129.62" y2="18.76"/><line class="cls-2" x1="129.62" y1="27.71" x2="126.22" y2="22.67"/><line class="cls-2" x1="126.16" y1="22.58" x2="126.1" y2="22.5"/><polygon class="cls-3" points="126.22 22.67 126.16 22.58 126.22 22.5 126.22 22.67"/><line class="cls-2" x1="118.36" y1="41.83" x2="118.36" y2="31.45"/><polyline class="cls-2" points="118.36 31.36 118.36 26.35 118.36 26.26 118.36 22.21 118.36 22.11 118.36 22.03"/><path class="cls-2" d="M132.79,90.4" transform="translate(-14.49 -68.37)"/><path class="cls-2" d="M131.38,96.91" transform="translate(-14.49 -68.37)"/><path class="cls-2" d="M132.91,94.63" transform="translate(-14.49 -68.37)"/><path class="cls-2" d="M132.79,94.63" transform="translate(-14.49 -68.37)"/><path class="cls-2" d="M131.32,102" transform="translate(-14.49 -68.37)"/><path class="cls-2" d="M132.85,99.73" transform="translate(-14.49 -68.37)"/><path class="cls-2" d="M132.73,99.73" transform="translate(-14.49 -68.37)"/><line class="cls-2" x1="118.36" y1="22.02" x2="116.36" y2="24.99"/><line class="cls-2" x1="118.36" y1="26.26" x2="116.36" y2="29.23"/><line class="cls-2" x1="118.33" y1="31.4" x2="116.36" y2="34.32"/><path class="cls-2" d="M132.79,90.39" transform="translate(-14.49 -68.37)"/><path class="cls-2" d="M131.38,96.91" transform="translate(-14.49 -68.37)"/><path class="cls-2" d="M132.91,94.63" transform="translate(-14.49 -68.37)"/><path class="cls-2" d="M132.79,94.63" transform="translate(-14.49 -68.37)"/><path class="cls-2" d="M131.32,102" transform="translate(-14.49 -68.37)"/><path class="cls-2" d="M132.85,99.73" transform="translate(-14.49 -68.37)"/><polygon class="cls-3" points="118.33 21.73 118.06 22.21 118.61 22.21 118.33 21.73"/><line class="cls-2" x1="118.3" y1="22.02" x2="120.3" y2="24.99"/><line class="cls-2" x1="118.3" y1="26.26" x2="120.3" y2="29.23"/><line class="cls-2" x1="120.3" y1="34.32" x2="118.36" y2="31.45"/><line class="cls-2" x1="118.33" y1="31.4" x2="118.3" y2="31.36"/><polygon class="cls-3" points="118.36 31.45 118.33 31.4 118.36 31.36 118.36 31.45"/><line class="cls-2" x1="110.85" y1="39.61" x2="110.85" y2="27.85"/><polyline class="cls-2" points="110.85 27.74 110.85 22.07 110.85 21.96 110.85 17.38 110.85 17.27 110.85 17.18"/><path class="cls-2" d="M125.28,85.54" transform="translate(-14.49 -68.37)"/><path class="cls-2" d="M123.67,92.92" transform="translate(-14.49 -68.37)"/><path class="cls-2" d="M125.41,90.33" transform="translate(-14.49 -68.37)"/><path class="cls-2" d="M125.28,90.33" transform="translate(-14.49 -68.37)"/><path class="cls-2" d="M123.6,98.69" transform="translate(-14.49 -68.37)"/><path class="cls-2" d="M125.34,96.11" transform="translate(-14.49 -68.37)"/><path class="cls-2" d="M125.21,96.11" transform="translate(-14.49 -68.37)"/><line class="cls-2" x1="110.85" y1="17.16" x2="108.59" y2="20.52"/><line class="cls-2" x1="110.85" y1="21.96" x2="108.59" y2="25.33"/><line class="cls-2" x1="110.82" y1="27.79" x2="108.59" y2="31.1"/><path class="cls-2" d="M125.28,85.53" transform="translate(-14.49 -68.37)"/><path class="cls-2" d="M123.67,92.92" transform="translate(-14.49 -68.37)"/><path class="cls-2" d="M125.41,90.33" transform="translate(-14.49 -68.37)"/><path class="cls-2" d="M125.28,90.33" transform="translate(-14.49 -68.37)"/><path class="cls-2" d="M123.6,98.69" transform="translate(-14.49 -68.37)"/><path class="cls-2" d="M125.34,96.11" transform="translate(-14.49 -68.37)"/><polygon class="cls-3" points="110.82 16.83 110.51 17.38 111.13 17.38 110.82 16.83"/><line class="cls-2" x1="110.78" y1="17.16" x2="113.05" y2="20.52"/><line class="cls-2" x1="110.78" y1="21.96" x2="113.05" y2="25.33"/><line class="cls-2" x1="113.05" y1="31.1" x2="110.85" y2="27.85"/><line class="cls-2" x1="110.82" y1="27.79" x2="110.78" y2="27.74"/><polygon class="cls-3" points="110.85 27.85 110.82 27.79 110.85 27.74 110.85 27.85"/><line class="cls-2" x1="105.88" y1="80.06" x2="105.88" y2="64.17"/><polyline class="cls-2" points="105.88 64.03 105.88 56.37 105.88 56.22 105.88 50.03 105.88 49.88 105.88 49.76"/><path class="cls-2" d="M120.29,118.13" transform="translate(-14.49 -68.37)"/><path class="cls-2" d="M118.44,128.08" transform="translate(-14.49 -68.37)"/><path class="cls-2" d="M120.45,124.6" transform="translate(-14.49 -68.37)"/><path class="cls-2" d="M120.29,124.6" transform="translate(-14.49 -68.37)"/><path class="cls-2" d="M118.36,135.88" transform="translate(-14.49 -68.37)"/><path class="cls-2" d="M120.37,132.4" transform="translate(-14.49 -68.37)"/><path class="cls-2" d="M120.21,132.4" transform="translate(-14.49 -68.37)"/><line class="cls-2" x1="105.88" y1="49.74" x2="103.26" y2="54.28"/><line class="cls-2" x1="105.88" y1="56.23" x2="103.26" y2="60.77"/><line class="cls-2" x1="105.84" y1="64.1" x2="103.26" y2="68.57"/><path class="cls-2" d="M120.29,118.11" transform="translate(-14.49 -68.37)"/><path class="cls-2" d="M118.44,128.08" transform="translate(-14.49 -68.37)"/><path class="cls-2" d="M120.45,124.6" transform="translate(-14.49 -68.37)"/><path class="cls-2" d="M120.29,124.6" transform="translate(-14.49 -68.37)"/><path class="cls-2" d="M118.36,135.88" transform="translate(-14.49 -68.37)"/><path class="cls-2" d="M120.37,132.4" transform="translate(-14.49 -68.37)"/><polygon class="cls-3" points="105.84 49.29 105.48 50.03 106.2 50.03 105.84 49.29"/><line class="cls-2" x1="105.8" y1="49.74" x2="108.42" y2="54.28"/><line class="cls-2" x1="105.8" y1="56.23" x2="108.42" y2="60.77"/><line class="cls-2" x1="108.42" y1="68.57" x2="105.88" y2="64.17"/><line class="cls-2" x1="105.84" y1="64.1" x2="105.8" y2="64.03"/><polygon class="cls-3" points="105.88 64.17 105.84 64.1 105.88 64.03 105.88 64.17"/><line class="cls-2" x1="88.91" y1="79.15" x2="88.91" y2="67.23"/><polyline class="cls-2" points="88.91 67.12 88.91 61.38 88.91 61.27 88.91 56.63 88.91 56.52 88.91 56.42"/><path class="cls-2" d="M103.34,124.79" transform="translate(-14.49 -68.37)"/><path class="cls-2" d="M102,132.26" transform="translate(-14.49 -68.37)"/><path class="cls-2" d="M103.46,129.64" transform="translate(-14.49 -68.37)"/><path class="cls-2" d="M103.34,129.64" transform="translate(-14.49 -68.37)"/><path class="cls-2" d="M101.89,138.11" transform="translate(-14.49 -68.37)"/><path class="cls-2" d="M103.4,135.49" transform="translate(-14.49 -68.37)"/><path class="cls-2" d="M103.28,135.49" transform="translate(-14.49 -68.37)"/><line class="cls-2" x1="88.91" y1="56.41" x2="86.94" y2="59.81"/><line class="cls-2" x1="88.91" y1="61.27" x2="86.94" y2="64.68"/><line class="cls-2" x1="88.88" y1="67.18" x2="86.94" y2="70.53"/><path class="cls-2" d="M103.34,124.77" transform="translate(-14.49 -68.37)"/><path class="cls-2" d="M102,132.26" transform="translate(-14.49 -68.37)"/><path class="cls-2" d="M103.46,129.64" transform="translate(-14.49 -68.37)"/><path class="cls-2" d="M103.34,129.64" transform="translate(-14.49 -68.37)"/><path class="cls-2" d="M101.89,138.11" transform="translate(-14.49 -68.37)"/><path class="cls-2" d="M103.4,135.49" transform="translate(-14.49 -68.37)"/><polygon class="cls-3" points="88.88 56.07 88.61 56.63 89.15 56.63 88.88 56.07"/><line class="cls-2" x1="88.84" y1="56.41" x2="90.81" y2="59.81"/><line class="cls-2" x1="88.84" y1="61.27" x2="90.81" y2="64.68"/><line class="cls-2" x1="90.81" y1="70.53" x2="88.91" y2="67.23"/><line class="cls-2" x1="88.88" y1="67.18" x2="88.84" y2="67.12"/><polygon class="cls-3" points="88.91 67.23 88.88 67.18 88.91 67.12 88.91 67.23"/></g><g id="Layer_2" data-name="Layer 2"><text class="cls-4" transform="translate(0 34)">Ca<tspan class="cls-5" x="50.36" y="0">f</tspan><tspan x="64.4" y="0">e</tspan></text><text class="cls-6" transform="translate(75.89 46.08)">in </text><text class="cls-7" transform="translate(189.97 136.72)">P<tspan class="cls-8" x="23.76" y="0">ark</tspan></text><text class="cls-6" transform="translate(192.14 104.31)">the</text></g></svg>